<svg xmlns="http://www.w3.org/2000/svg" version="1.1" xmlns:xlink="http://www.w3.org/1999/xlink" xmlns:svgjs="http://svgjs.dev/svgjs" width="1000" height="623" viewBox="0 0 1000 623"><g transform="matrix(1,0,0,1,-0.6060606060606233,0.2522267206477977)"><svg viewBox="0 0 396 247" data-background-color="#1b4571" preserveAspectRatio="xMidYMid meet" height="623" width="1000" xmlns="http://www.w3.org/2000/svg" xmlns:xlink="http://www.w3.org/1999/xlink"><g id="tight-bounds" transform="matrix(1,0,0,1,0.2400000000000091,-0.09999999999999432)"><svg viewBox="0 0 395.52 247.2" height="247.2" width="395.52"><g><svg></svg></g><g><svg viewBox="0 0 395.52 247.2" height="247.2" width="395.52"><g transform="matrix(1,0,0,1,75.54432,71.7630485152682)"><svg viewBox="0 0 244.43135999999998 103.6739029694636" height="103.6739029694636" width="244.43135999999998"><g><svg viewBox="0 0 244.43135999999998 103.6739029694636" height="103.6739029694636" width="244.43135999999998"><g><svg viewBox="0 0 244.43135999999998 103.6739029694636" height="103.6739029694636" width="244.43135999999998"><g><svg viewBox="0 0 244.43135999999998 103.6739029694636" height="103.6739029694636" width="244.43135999999998"><g><svg viewBox="0 0 244.43135999999998 103.6739029694636" height="103.6739029694636" width="244.43135999999998"><g><svg viewBox="0 0 244.43135999999998 60.35703944860652" height="60.35703944860652" width="244.43135999999998"><g transform="matrix(1,0,0,1,0,0)"><svg width="244.43135999999998" viewBox="4.650000095367432 -40.349998474121094 166.8400115966797 41.19999694824219" height="60.35703944860652" data-palette-color="#ffffff"><path d="M26.6-19.25Q29.85-18.2 31.63-15.95 33.4-13.7 33.4-10.45L33.4-10.45Q33.4-5.2 30.13-2.6 26.85 0 19.15 0L19.15 0 4.65 0 4.65-37.9 19.15-37.9Q26.1-37.9 29-35.35 31.9-32.8 31.9-27.75L31.9-27.75Q31.9-24.7 30.63-22.58 29.35-20.45 26.6-19.25L26.6-19.25ZM11.6-32.3L11.6-21.8 19.15-21.8Q24.85-21.8 24.85-27.15L24.85-27.15Q24.85-29.9 23.55-31.1 22.25-32.3 19.15-32.3L19.15-32.3 11.6-32.3ZM26.35-10.95Q26.35-13.7 24.55-14.95 22.75-16.2 19.15-16.2L19.15-16.2 11.6-16.2 11.6-5.6 19.15-5.6Q23.1-5.6 24.73-6.88 26.35-8.15 26.35-10.95L26.35-10.95ZM40.35-32.8L40.35-40.35 47.05-40.35 47.05-32.8 40.35-32.8ZM40.35 0L40.35-27.95 47.05-27.95 47.05 0 40.35 0ZM55.05-32.8L55.05-40.35 61.75-40.35 61.75-32.8 55.05-32.8ZM55.05 0L55.05-27.95 61.75-27.95 61.75 0 55.05 0ZM102.44-28.55Q107.64-28.55 110.19-25.78 112.74-23 112.74-16.85L112.74-16.85 112.74 0 106.04 0 106.04-16.85Q106.04-19.8 104.94-21.18 103.84-22.55 101.14-22.55L101.14-22.55Q97.89-22.55 94.44-19.45L94.44-19.45Q94.59-18.25 94.59-16.85L94.59-16.85 94.59 0 87.89 0 87.89-16.85Q87.89-19.8 86.79-21.18 85.69-22.55 82.99-22.55L82.99-22.55Q79.74-22.55 76.44-19.65L76.44-19.65 76.44 0 69.74 0 69.74-27.95 76.44-27.95 76.44-25.4Q80.19-28.55 84.29-28.55L84.29-28.55Q87.59-28.55 89.82-27.48 92.04-26.4 93.19-24.1L93.19-24.1Q95.44-26.35 97.67-27.45 99.89-28.55 102.44-28.55L102.44-28.55ZM125.39-12.45Q126.19-4.85 133.79-4.85L133.79-4.85Q135.74-4.85 137.59-5.35 139.44-5.85 141.74-6.95L141.74-6.95 143.54-1.65Q141.14-0.3 138.64 0.28 136.14 0.85 132.99 0.85L132.99 0.85Q128.34 0.85 125.04-1.03 121.74-2.9 120.06-6.25 118.39-9.6 118.39-14.05L118.39-14.05Q118.39-18.7 120.14-22.03 121.89-25.35 124.89-27.05 127.89-28.75 131.59-28.75L131.59-28.75Q137.44-28.75 140.77-25.28 144.09-21.8 144.14-15.1L144.14-15.1 144.14-12.45 125.39-12.45ZM131.59-23.05Q126.69-23.05 125.64-17.65L125.64-17.65 137.09-17.65Q136.84-20.45 135.49-21.75 134.14-23.05 131.59-23.05L131.59-23.05ZM159.69-27.95Q164.64-27.95 167.21-26.48 169.79-25 170.64-22.53 171.49-20.05 171.49-16.3L171.49-16.3 171.49 0 164.79 0 164.79-2.55Q162.94-0.85 161.16-0.1 159.39 0.65 157.29 0.65L157.29 0.65Q152.89 0.65 150.21-1.88 147.54-4.4 147.54-8.8L147.54-8.8Q147.54-13.3 150.31-15.78 153.09-18.25 157.94-18.25L157.94-18.25Q161.89-18.25 164.79-16.7L164.79-16.7Q164.74-18.6 164.31-19.75 163.89-20.9 162.64-21.53 161.39-22.15 158.94-22.15L158.94-22.15 154.24-22.15 154.24-27.95 159.69-27.95ZM158.49-4.7Q161.54-4.7 164.79-7.5L164.79-7.5 164.79-11.9Q162.14-13.25 159.34-13.25L159.34-13.25Q157.14-13.25 155.74-12.23 154.34-11.2 154.34-8.9L154.34-8.9Q154.34-6.65 155.51-5.68 156.69-4.7 158.49-4.7L158.49-4.7Z" opacity="1" transform="matrix(1,0,0,1,0,0)" fill="#ffffff" class="undefined-text-0" data-fill-palette-color="primary" id="text-0"></path></svg></g></svg></g><g transform="matrix(1,0,0,1,0,74.60588789347575)"><svg viewBox="0 0 244.43135999999998 29.068015075987834" height="29.068015075987834" width="244.43135999999998"><g transform="matrix(1,0,0,1,0,0)"><svg width="244.43135999999998" viewBox="6.400000095367432 -37.099998474121094 394.8000183105469 46.94999694824219" height="29.068015075987834" data-palette-color="#ffffff"><path d="M8.1-1.55L30.05-1.55 30.05 0 6.4 0 6.4-35 29.35-35 29.35-33.45 8.1-33.45 8.1-18.55 27.1-18.55 27.1-17 8.1-17 8.1-1.55ZM47-26.15Q51.65-26.15 54.13-23.75 56.6-21.35 56.6-16.8L56.6-16.8 56.6 0 55 0 55-5.2Q53.75-2.7 51.28-1.28 48.8 0.15 45.35 0.15L45.35 0.15Q41 0.15 38.53-1.85 36.05-3.85 36.05-7.15L36.05-7.15Q36.05-10.3 38.3-12.28 40.55-14.25 45.5-14.25L45.5-14.25 54.95-14.25 54.95-16.8Q54.95-20.65 52.93-22.65 50.9-24.65 46.95-24.65L46.95-24.65Q44.2-24.65 41.8-23.7 39.4-22.75 37.7-21.15L37.7-21.15 36.8-22.35Q38.7-24.15 41.38-25.15 44.05-26.15 47-26.15L47-26.15ZM45.45-1.25Q52.45-1.25 54.95-7.5L54.95-7.5 54.95-12.9 45.5-12.9Q41.45-12.9 39.58-11.38 37.7-9.85 37.7-7.25L37.7-7.25Q37.7-4.45 39.78-2.85 41.85-1.25 45.45-1.25L45.45-1.25ZM69-19.7Q70.15-22.8 72.73-24.48 75.3-26.15 79.1-26.15L79.1-26.15 79.1-24.5 78.65-24.5Q74.15-24.5 71.6-21.65 69.05-18.8 69.05-13.8L69.05-13.8 69.05 0 67.4 0 67.4-25.95 69-25.95 69-19.7ZM86.35 0L86.35-25.95 88-25.95 88 0 86.35 0ZM87.15-32.75Q86.5-32.75 86-33.23 85.5-33.7 85.5-34.35L85.5-34.35Q85.5-35.05 85.98-35.52 86.45-36 87.15-36L87.15-36Q87.8-36 88.3-35.52 88.8-35.05 88.8-34.4L88.8-34.4Q88.8-33.75 88.3-33.25 87.8-32.75 87.15-32.75L87.15-32.75ZM111.35-26.15Q116.2-26.15 119-23.33 121.8-20.5 121.8-15.25L121.8-15.25 121.8 0 120.15 0 120.15-15.15Q120.15-19.75 117.83-22.18 115.5-24.6 111.2-24.6L111.2-24.6Q106.35-24.6 103.55-21.73 100.75-18.85 100.75-14L100.75-14 100.75 0 99.1 0 99.1-25.95 100.7-25.95 100.7-19.6Q101.95-22.65 104.73-24.4 107.5-26.15 111.35-26.15L111.35-26.15ZM153.9-25.95L155.5-25.95 155.5-2.5Q155.5 3.8 152.45 6.83 149.4 9.85 143.25 9.85L143.25 9.85Q139.65 9.85 136.55 8.75 133.45 7.65 131.6 5.65L131.6 5.65 132.55 4.4Q134.55 6.3 137.28 7.33 140 8.35 143.2 8.35L143.2 8.35Q148.65 8.35 151.25 5.78 153.85 3.2 153.85-2.3L153.85-2.3 153.85-7.8Q152.4-4.6 149.4-2.75 146.4-0.9 142.55-0.9L142.55-0.9Q138.9-0.9 135.98-2.53 133.05-4.15 131.38-7.03 129.7-9.9 129.7-13.55L129.7-13.55Q129.7-17.2 131.38-20.08 133.05-22.95 135.98-24.55 138.9-26.15 142.55-26.15L142.55-26.15Q146.4-26.15 149.43-24.3 152.45-22.45 153.9-19.2L153.9-19.2 153.9-25.95ZM142.6-2.4Q145.8-2.4 148.38-3.83 150.95-5.25 152.43-7.8 153.9-10.35 153.9-13.55L153.9-13.55Q153.9-16.75 152.43-19.28 150.95-21.8 148.38-23.2 145.8-24.6 142.6-24.6L142.6-24.6Q139.4-24.6 136.83-23.2 134.25-21.8 132.8-19.28 131.35-16.75 131.35-13.55L131.35-13.55Q131.35-10.3 132.8-7.78 134.25-5.25 136.83-3.83 139.4-2.4 142.6-2.4L142.6-2.4ZM190.65-2.85L191.5-1.65Q190.6-0.8 189.2-0.33 187.8 0.15 186.3 0.15L186.3 0.15Q183.15 0.15 181.43-1.63 179.7-3.4 179.7-6.5L179.7-6.5 179.7-24.5 174.8-24.5 174.8-25.95 179.7-25.95 179.7-31.65 181.35-31.65 181.35-25.95 189.9-25.95 189.9-24.5 181.35-24.5 181.35-6.75Q181.35-4.1 182.65-2.7 183.95-1.3 186.45-1.3L186.45-1.3Q188.95-1.3 190.65-2.85L190.65-2.85ZM211.1-26.15Q215.95-26.15 218.75-23.33 221.55-20.5 221.55-15.25L221.55-15.25 221.55 0 219.9 0 219.9-15.15Q219.9-19.75 217.58-22.18 215.25-24.6 210.95-24.6L210.95-24.6Q206.1-24.6 203.3-21.73 200.5-18.85 200.5-14L200.5-14 200.5 0 198.85 0 198.85-37.1 200.5-37.1 200.5-19.75Q201.8-22.75 204.55-24.45 207.3-26.15 211.1-26.15L211.1-26.15ZM253.8-13.2L253.8-12.75 231.05-12.75Q231.1-9.45 232.6-6.85 234.1-4.25 236.73-2.8 239.35-1.35 242.6-1.35L242.6-1.35Q245.25-1.35 247.5-2.33 249.75-3.3 251.2-5.2L251.2-5.2 252.25-4.1Q250.5-2.05 248-0.95 245.5 0.15 242.6 0.15L242.6 0.15Q238.8 0.15 235.83-1.53 232.85-3.2 231.15-6.2 229.45-9.2 229.45-13L229.45-13Q229.45-16.8 231.03-19.8 232.6-22.8 235.4-24.48 238.2-26.15 241.65-26.15L241.65-26.15Q245.05-26.15 247.83-24.5 250.6-22.85 252.2-19.9 253.8-16.95 253.8-13.2L253.8-13.2ZM241.65-24.65Q238.75-24.65 236.4-23.3 234.05-21.95 232.65-19.53 231.25-17.1 231.1-14.1L231.1-14.1 252.25-14.1Q252.05-17.1 250.63-19.53 249.2-21.95 246.88-23.3 244.55-24.65 241.65-24.65L241.65-24.65ZM309.3-25.95L310.9-25.95 301 0 299.45 0 290.25-23.75 281 0 279.55 0 269.6-25.95 271.2-25.95 280.25-1.9 289.5-25.95 291-25.95 300.2-1.9 309.3-25.95ZM326.05 0.15Q322.45 0.15 319.53-1.53 316.6-3.2 314.95-6.2 313.3-9.2 313.3-13L313.3-13Q313.3-16.8 314.95-19.8 316.6-22.8 319.53-24.48 322.45-26.15 326.05-26.15L326.05-26.15Q329.7-26.15 332.6-24.48 335.5-22.8 337.15-19.8 338.8-16.8 338.8-13L338.8-13Q338.8-9.2 337.15-6.2 335.5-3.2 332.6-1.53 329.7 0.15 326.05 0.15L326.05 0.15ZM326.05-1.35Q329.2-1.35 331.73-2.83 334.25-4.3 335.7-6.95 337.15-9.6 337.15-13L337.15-13Q337.15-16.4 335.7-19.03 334.25-21.65 331.73-23.13 329.2-24.6 326.05-24.6L326.05-24.6Q322.9-24.6 320.38-23.13 317.85-21.65 316.4-19.03 314.95-16.4 314.95-13L314.95-13Q314.95-9.6 316.4-6.95 317.85-4.3 320.38-2.83 322.9-1.35 326.05-1.35L326.05-1.35ZM348.55-19.7Q349.7-22.8 352.28-24.48 354.85-26.15 358.65-26.15L358.65-26.15 358.65-24.5 358.2-24.5Q353.7-24.5 351.15-21.65 348.6-18.8 348.6-13.8L348.6-13.8 348.6 0 346.95 0 346.95-25.95 348.55-25.95 348.55-19.7ZM365.9 0L365.9-37.1 367.55-37.1 367.55 0 365.9 0ZM399.55-37.1L401.2-37.1 401.2 0 399.6 0 399.6-7.1Q398.15-3.7 395.18-1.78 392.2 0.15 388.4 0.15L388.4 0.15Q384.85 0.15 381.95-1.53 379.05-3.2 377.38-6.2 375.7-9.2 375.7-13L375.7-13Q375.7-16.8 377.38-19.8 379.05-22.8 381.95-24.48 384.85-26.15 388.4-26.15L388.4-26.15Q392.15-26.15 395.13-24.25 398.1-22.35 399.55-19L399.55-19 399.55-37.1ZM388.45-1.35Q391.6-1.35 394.13-2.83 396.65-4.3 398.1-6.95 399.55-9.6 399.55-13L399.55-13Q399.55-16.4 398.1-19.03 396.65-21.65 394.13-23.13 391.6-24.6 388.45-24.6L388.45-24.6Q385.3-24.6 382.78-23.13 380.25-21.65 378.8-19.03 377.35-16.4 377.35-13L377.35-13Q377.35-9.6 378.8-6.95 380.25-4.3 382.78-2.83 385.3-1.35 388.45-1.35L388.45-1.35Z" opacity="1" transform="matrix(1,0,0,1,0,0)" fill="#ffffff" class="undefined-text-1" data-fill-palette-color="secondary" id="text-1"></path></svg></g></svg></g></svg></g></svg></g></svg></g></svg></g></svg></g><g><path d="M245.816 0c68.262 0 123.6 55.338 123.6 123.6 0 68.262-55.338 123.6-123.6 123.6-46.912 0-87.719-26.135-108.657-64.639h3.109c20.682 36.944 60.199 61.917 105.548 61.917 66.759 0 120.878-54.119 120.878-120.878 0-66.759-54.119-120.878-120.878-120.878-45.349 0-84.866 24.973-105.548 61.917l-3.109 0c20.938-38.504 61.745-64.639 108.657-64.639z" fill="#ffffff" stroke="transparent" data-fill-palette-color="tertiary"></path></g></svg></g><defs></defs></svg><rect width="395.52" height="247.2" fill="none" stroke="none" visibility="hidden"></rect></g></svg></g></svg>